<?xml version="1.0" encoding="utf-8"?>
<!-- Generator: Adobe Illustrator 23.0.3, SVG Export Plug-In . SVG Version: 6.00 Build 0)  -->
<svg version="1.1" id="Icons" xmlns="http://www.w3.org/2000/svg" xmlns:xlink="http://www.w3.org/1999/xlink" x="0px" y="0px"
	 viewBox="0 0 32 32" style="enable-background:new 0 0 32 32;" xml:space="preserve">
<style type="text/css">
	.st0{fill:none;stroke:#000000;stroke-width:2;stroke-linecap:round;stroke-linejoin:round;stroke-miterlimit:10;}
</style>
<line class="st0" x1="16" y1="9" x2="16" y2="10"/>
<line class="st0" x1="16" y1="16" x2="16" y2="17"/>
<path class="st0" d="M17,10h-1.5c-0.8,0-1.5,0.7-1.5,1.5v0c0,0.8,0.7,1.5,1.5,1.5h1c0.8,0,1.5,0.7,1.5,1.5v0c0,0.8-0.7,1.5-1.5,1.5
	H15"/>
<path class="st0" d="M24,12c0-4.7-4.1-8.5-8.9-7.9c-3.5,0.4-6.4,3.2-7,6.7c-0.4,2.6,0.5,5.1,2.1,6.8c1.2,1.2,1.8,2.8,1.8,4.5v0h8v0
	c0-1.6,0.6-3.3,1.7-4.4C23.1,16.1,24,14.2,24,12z"/>
<line class="st0" x1="20" y1="25" x2="12" y2="25"/>
<path class="st0" d="M19,26c0,1.7-1.3,3-3,3s-3-1.3-3-3"/>
<line class="st0" x1="4" y1="13" x2="2" y2="13"/>
<line class="st0" x1="7.5" y1="21.5" x2="6.1" y2="22.9"/>
<line class="st0" x1="24.5" y1="21.5" x2="25.9" y2="22.9"/>
<line class="st0" x1="28" y1="13" x2="30" y2="13"/>
<line class="st0" x1="24.5" y1="4.5" x2="25.9" y2="3.1"/>
<line class="st0" x1="7.5" y1="4.5" x2="6.1" y2="3.1"/>
</svg>
